<svg width="1145" height="130" viewBox="0 0 1145 130" fill="none" xmlns="http://www.w3.org/2000/svg">
<rect x="24.5" y="30.5" width="1120" height="99" rx="10.5" fill="#FCFCFD"/>
<rect x="24.5" y="30.5" width="1120" height="99" rx="10.5" stroke="#F1F1F3"/>
<rect x="44" y="49" width="62" height="62" rx="6" fill="#FFF4E6"/>
<path fill-rule="evenodd" clip-rule="evenodd" d="M78.7049 65.2595C79.1317 65.4974 79.3411 65.9957 79.2126 66.4671L76.3911 76.8125H86.6875C87.1106 76.8125 87.4934 77.0635 87.662 77.4516C87.8306 77.8396 87.7529 78.2907 87.4643 78.6L72.5893 94.5375C72.2559 94.8947 71.7219 94.9785 71.2951 94.7406C70.8684 94.5026 70.6589 94.0044 70.7875 93.533L73.6089 83.1875H63.3125C62.8894 83.1875 62.5067 82.9365 62.3381 82.5485C62.1694 82.1605 62.2471 81.7094 62.5358 81.4001L77.4108 65.4626C77.7442 65.1054 78.2782 65.0216 78.7049 65.2595Z" fill="#262626"/>
<path d="M119.714 98V62.48H143.522V68.144H126.242V77.168H141.362V82.688H126.242V92.336H143.762V98H119.714ZM149.656 98V72.56H156.04V76.112H156.28C156.6 75.536 157.048 74.944 157.624 74.336C158.2 73.696 158.936 73.168 159.832 72.752C160.76 72.304 161.896 72.08 163.24 72.08C165.128 72.08 166.68 72.528 167.896 73.424C169.112 74.32 170.008 75.472 170.584 76.88H170.68C171.32 75.664 172.264 74.56 173.512 73.568C174.792 72.576 176.488 72.08 178.6 72.08C180.392 72.08 181.88 72.496 183.064 73.328C184.28 74.128 185.176 75.216 185.752 76.592C186.36 77.968 186.664 79.456 186.664 81.056V98H180.28V82.4C180.28 80.928 179.912 79.728 179.176 78.8C178.472 77.84 177.416 77.36 176.008 77.36C174.888 77.36 173.976 77.664 173.272 78.272C172.6 78.848 172.104 79.584 171.784 80.48C171.496 81.376 171.352 82.288 171.352 83.216V98H164.968V82.4C164.968 80.928 164.616 79.728 163.912 78.8C163.208 77.84 162.136 77.36 160.696 77.36C159.576 77.36 158.664 77.664 157.96 78.272C157.288 78.848 156.792 79.6 156.472 80.528C156.184 81.424 156.04 82.32 156.04 83.216V98H149.656ZM193.073 107.408V72.56H199.457V76.112H199.793C200.017 75.728 200.417 75.216 200.993 74.576C201.601 73.936 202.433 73.36 203.489 72.848C204.545 72.336 205.889 72.08 207.521 72.08C209.441 72.08 211.105 72.464 212.513 73.232C213.921 73.968 215.089 74.976 216.017 76.256C216.945 77.504 217.633 78.912 218.081 80.48C218.561 82.048 218.801 83.648 218.801 85.28C218.801 86.912 218.561 88.512 218.081 90.08C217.633 91.648 216.945 93.072 216.017 94.352C215.089 95.6 213.921 96.608 212.513 97.376C211.105 98.112 209.441 98.48 207.521 98.48C205.889 98.48 204.545 98.224 203.489 97.712C202.433 97.168 201.601 96.576 200.993 95.936C200.417 95.296 200.017 94.8 199.793 94.448H199.457V107.408H193.073ZM199.361 85.28C199.361 86.592 199.601 87.856 200.081 89.072C200.561 90.288 201.281 91.296 202.241 92.096C203.201 92.864 204.401 93.248 205.841 93.248C207.313 93.248 208.529 92.864 209.489 92.096C210.449 91.296 211.169 90.288 211.649 89.072C212.129 87.856 212.369 86.592 212.369 85.28C212.369 83.968 212.129 82.704 211.649 81.488C211.169 80.272 210.449 79.28 209.489 78.512C208.529 77.712 207.313 77.312 205.841 77.312C204.401 77.312 203.201 77.712 202.241 78.512C201.281 79.28 200.561 80.272 200.081 81.488C199.601 82.704 199.361 83.968 199.361 85.28ZM236.812 98.48C234.028 98.48 231.66 97.856 229.708 96.608C227.756 95.36 226.268 93.744 225.244 91.76C224.252 89.744 223.756 87.584 223.756 85.28C223.756 82.976 224.252 80.832 225.244 78.848C226.268 76.832 227.756 75.2 229.708 73.952C231.66 72.704 234.028 72.08 236.812 72.08C239.628 72.08 241.996 72.704 243.916 73.952C245.868 75.2 247.34 76.832 248.332 78.848C249.356 80.832 249.868 82.976 249.868 85.28C249.868 87.584 249.356 89.744 248.332 91.76C247.34 93.744 245.868 95.36 243.916 96.608C241.996 97.856 239.628 98.48 236.812 98.48ZM236.812 93.152C238.252 93.152 239.452 92.784 240.412 92.048C241.404 91.312 242.156 90.352 242.668 89.168C243.18 87.952 243.436 86.656 243.436 85.28C243.436 83.872 243.18 82.576 242.668 81.392C242.156 80.208 241.404 79.248 240.412 78.512C239.452 77.776 238.252 77.408 236.812 77.408C235.404 77.408 234.204 77.776 233.212 78.512C232.22 79.248 231.468 80.208 230.956 81.392C230.444 82.576 230.188 83.872 230.188 85.28C230.188 86.656 230.444 87.952 230.956 89.168C231.468 90.352 232.22 91.312 233.212 92.048C234.204 92.784 235.404 93.152 236.812 93.152ZM260.569 98L252.601 72.56H258.985L264.073 90.032L269.497 72.56H275.305L280.729 90.032L285.817 72.56H292.201L284.185 98H277.417L272.425 81.824L267.385 98H260.569ZM307.584 98.48C305.408 98.48 303.52 98.112 301.92 97.376C300.352 96.608 299.04 95.6 297.984 94.352C296.96 93.072 296.192 91.648 295.68 90.08C295.168 88.512 294.912 86.912 294.912 85.28C294.912 83.648 295.152 82.064 295.632 80.528C296.144 78.96 296.896 77.536 297.888 76.256C298.912 74.976 300.208 73.968 301.776 73.232C303.344 72.464 305.2 72.08 307.344 72.08C309.648 72.08 311.68 72.592 313.44 73.616C315.2 74.64 316.576 76.144 317.568 78.128C318.56 80.08 319.056 82.512 319.056 85.424V87.056H301.344C301.44 88.784 302.032 90.288 303.12 91.568C304.208 92.816 305.696 93.44 307.584 93.44C308.672 93.44 309.568 93.264 310.272 92.912C310.976 92.56 311.52 92.16 311.904 91.712C312.288 91.232 312.56 90.832 312.72 90.512C312.88 90.16 312.96 89.984 312.96 89.984H318.864C318.864 89.984 318.784 90.272 318.624 90.848C318.464 91.392 318.16 92.096 317.712 92.96C317.296 93.792 316.672 94.64 315.84 95.504C315.008 96.336 313.92 97.04 312.576 97.616C311.232 98.192 309.568 98.48 307.584 98.48ZM301.344 82.88H312.912C312.816 80.896 312.224 79.424 311.136 78.464C310.048 77.504 308.768 77.024 307.296 77.024C305.664 77.024 304.304 77.552 303.216 78.608C302.128 79.632 301.504 81.056 301.344 82.88ZM324.64 98V72.56H330.976V76.064H331.216C331.664 75.072 332.4 74.16 333.424 73.328C334.448 72.496 335.984 72.08 338.032 72.08C338.672 72.08 339.2 72.128 339.616 72.224C340.032 72.288 340.24 72.32 340.24 72.32V78.512C340.24 78.512 340 78.48 339.52 78.416C339.072 78.352 338.512 78.32 337.84 78.32C335.6 78.32 333.904 78.944 332.752 80.192C331.6 81.44 331.024 83.456 331.024 86.24V98H324.64ZM349.199 68.624C348.079 68.624 347.151 68.256 346.415 67.52C345.711 66.784 345.359 65.904 345.359 64.88C345.359 63.856 345.711 62.976 346.415 62.24C347.151 61.504 348.079 61.136 349.199 61.136C350.319 61.136 351.247 61.504 351.983 62.24C352.719 62.976 353.087 63.856 353.087 64.88C353.087 65.904 352.719 66.784 351.983 67.52C351.247 68.256 350.319 68.624 349.199 68.624ZM346.031 98V72.56H352.415V98H346.031ZM359.046 98V72.56H365.43V76.208H365.718C365.974 75.76 366.374 75.216 366.918 74.576C367.462 73.904 368.214 73.328 369.174 72.848C370.134 72.336 371.35 72.08 372.822 72.08C374.774 72.08 376.374 72.528 377.622 73.424C378.902 74.288 379.846 75.44 380.454 76.88C381.094 78.32 381.414 79.872 381.414 81.536V98H375.03V82.4C375.03 81.024 374.646 79.84 373.878 78.848C373.11 77.856 371.958 77.36 370.422 77.36C369.238 77.36 368.278 77.664 367.542 78.272C366.806 78.848 366.262 79.6 365.91 80.528C365.59 81.456 365.43 82.432 365.43 83.456V98H359.046ZM399.939 108.176C397.667 108.176 395.779 107.872 394.275 107.264C392.803 106.688 391.635 105.968 390.771 105.104C389.907 104.272 389.267 103.424 388.851 102.56C388.435 101.696 388.163 100.976 388.035 100.4C387.907 99.824 387.843 99.536 387.843 99.536H394.083C394.083 99.536 394.147 99.712 394.275 100.064C394.403 100.416 394.659 100.816 395.043 101.264C395.459 101.744 396.051 102.16 396.819 102.512C397.587 102.864 398.611 103.04 399.891 103.04C402.131 103.04 403.747 102.4 404.739 101.12C405.731 99.84 406.227 98.288 406.227 96.464V93.632H405.939C405.587 94.176 405.075 94.768 404.403 95.408C403.763 96.048 402.915 96.592 401.859 97.04C400.835 97.488 399.587 97.712 398.115 97.712C396.227 97.712 394.579 97.344 393.171 96.608C391.763 95.872 390.579 94.896 389.619 93.68C388.659 92.464 387.939 91.104 387.459 89.6C387.011 88.064 386.787 86.496 386.787 84.896C386.787 83.296 387.011 81.744 387.459 80.24C387.939 78.704 388.659 77.328 389.619 76.112C390.579 74.864 391.763 73.888 393.171 73.184C394.579 72.448 396.227 72.08 398.115 72.08C399.587 72.08 400.835 72.304 401.859 72.752C402.915 73.2 403.763 73.744 404.403 74.384C405.075 74.992 405.587 75.568 405.939 76.112H406.227V72.56H412.611V96.416C412.611 98.624 412.147 100.608 411.219 102.368C410.291 104.16 408.883 105.568 406.995 106.592C405.139 107.648 402.787 108.176 399.939 108.176ZM399.795 92.576C401.235 92.576 402.435 92.208 403.395 91.472C404.355 90.704 405.075 89.744 405.555 88.592C406.035 87.408 406.275 86.176 406.275 84.896C406.275 83.584 406.035 82.352 405.555 81.2C405.075 80.016 404.355 79.056 403.395 78.32C402.435 77.584 401.235 77.216 399.795 77.216C398.323 77.216 397.091 77.584 396.099 78.32C395.139 79.056 394.419 80.016 393.939 81.2C393.459 82.352 393.219 83.584 393.219 84.896C393.219 86.176 393.459 87.408 393.939 88.592C394.419 89.744 395.139 90.704 396.099 91.472C397.091 92.208 398.323 92.576 399.795 92.576Z" fill="#5751E1"/>
<path d="M430.12 98L430.168 61.52H436.504V98H430.12ZM455.053 98.48C452.877 98.48 450.989 98.112 449.389 97.376C447.821 96.608 446.509 95.6 445.453 94.352C444.429 93.072 443.661 91.648 443.149 90.08C442.637 88.512 442.381 86.912 442.381 85.28C442.381 83.648 442.621 82.064 443.101 80.528C443.613 78.96 444.365 77.536 445.357 76.256C446.381 74.976 447.677 73.968 449.245 73.232C450.813 72.464 452.669 72.08 454.813 72.08C457.117 72.08 459.149 72.592 460.909 73.616C462.669 74.64 464.045 76.144 465.037 78.128C466.029 80.08 466.525 82.512 466.525 85.424V87.056H448.813C448.909 88.784 449.501 90.288 450.589 91.568C451.677 92.816 453.165 93.44 455.053 93.44C456.141 93.44 457.037 93.264 457.741 92.912C458.445 92.56 458.989 92.16 459.373 91.712C459.757 91.232 460.029 90.832 460.189 90.512C460.349 90.16 460.429 89.984 460.429 89.984H466.333C466.333 89.984 466.253 90.272 466.093 90.848C465.933 91.392 465.629 92.096 465.181 92.96C464.765 93.792 464.141 94.64 463.309 95.504C462.477 96.336 461.389 97.04 460.045 97.616C458.701 98.192 457.037 98.48 455.053 98.48ZM448.813 82.88H460.381C460.285 80.896 459.693 79.424 458.605 78.464C457.517 77.504 456.237 77.024 454.765 77.024C453.133 77.024 451.773 77.552 450.685 78.608C449.597 79.632 448.973 81.056 448.813 82.88ZM482.77 72.08C484.402 72.08 485.746 72.352 486.802 72.896C487.858 73.408 488.69 73.984 489.298 74.624C489.906 75.232 490.322 75.728 490.546 76.112H490.834V72.56H497.218V98H490.834V94.448H490.546C490.322 94.832 489.906 95.344 489.298 95.984C488.69 96.624 487.858 97.2 486.802 97.712C485.746 98.224 484.402 98.48 482.77 98.48C480.882 98.48 479.234 98.112 477.826 97.376C476.418 96.608 475.234 95.6 474.274 94.352C473.346 93.072 472.642 91.648 472.162 90.08C471.714 88.512 471.49 86.912 471.49 85.28C471.49 83.648 471.714 82.048 472.162 80.48C472.642 78.912 473.346 77.504 474.274 76.256C475.234 74.976 476.418 73.968 477.826 73.232C479.234 72.464 480.882 72.08 482.77 72.08ZM484.45 77.312C483.01 77.312 481.794 77.712 480.802 78.512C479.842 79.28 479.122 80.272 478.642 81.488C478.162 82.704 477.922 83.968 477.922 85.28C477.922 86.592 478.162 87.856 478.642 89.072C479.122 90.288 479.842 91.296 480.802 92.096C481.794 92.864 483.01 93.248 484.45 93.248C485.89 93.248 487.09 92.864 488.05 92.096C489.01 91.296 489.73 90.288 490.21 89.072C490.69 87.856 490.93 86.592 490.93 85.28C490.93 83.968 490.69 82.704 490.21 81.488C489.73 80.272 489.01 79.28 488.05 78.512C487.09 77.712 485.89 77.312 484.45 77.312ZM503.187 98V72.56H509.523V76.064H509.763C510.211 75.072 510.947 74.16 511.971 73.328C512.995 72.496 514.531 72.08 516.579 72.08C517.219 72.08 517.747 72.128 518.163 72.224C518.579 72.288 518.787 72.32 518.787 72.32V78.512C518.787 78.512 518.547 78.48 518.067 78.416C517.619 78.352 517.059 78.32 516.387 78.32C514.147 78.32 512.451 78.944 511.299 80.192C510.147 81.44 509.571 83.456 509.571 86.24V98H503.187ZM523.156 98V72.56H529.54V76.208H529.828C530.084 75.76 530.484 75.216 531.028 74.576C531.572 73.904 532.324 73.328 533.284 72.848C534.244 72.336 535.46 72.08 536.932 72.08C538.884 72.08 540.484 72.528 541.732 73.424C543.012 74.288 543.956 75.44 544.564 76.88C545.204 78.32 545.524 79.872 545.524 81.536V98H539.14V82.4C539.14 81.024 538.756 79.84 537.988 78.848C537.22 77.856 536.068 77.36 534.532 77.36C533.348 77.36 532.388 77.664 531.652 78.272C530.916 78.848 530.372 79.6 530.02 80.528C529.7 81.456 529.54 82.432 529.54 83.456V98H523.156ZM563.569 98.48C561.393 98.48 559.505 98.112 557.905 97.376C556.337 96.608 555.025 95.6 553.969 94.352C552.945 93.072 552.177 91.648 551.665 90.08C551.153 88.512 550.897 86.912 550.897 85.28C550.897 83.648 551.137 82.064 551.617 80.528C552.129 78.96 552.881 77.536 553.873 76.256C554.897 74.976 556.193 73.968 557.761 73.232C559.329 72.464 561.185 72.08 563.329 72.08C565.633 72.08 567.665 72.592 569.425 73.616C571.185 74.64 572.561 76.144 573.553 78.128C574.545 80.08 575.041 82.512 575.041 85.424V87.056H557.329C557.425 88.784 558.017 90.288 559.105 91.568C560.193 92.816 561.681 93.44 563.569 93.44C564.657 93.44 565.553 93.264 566.257 92.912C566.961 92.56 567.505 92.16 567.889 91.712C568.273 91.232 568.545 90.832 568.705 90.512C568.865 90.16 568.945 89.984 568.945 89.984H574.849C574.849 89.984 574.769 90.272 574.609 90.848C574.449 91.392 574.145 92.096 573.697 92.96C573.281 93.792 572.657 94.64 571.825 95.504C570.993 96.336 569.905 97.04 568.561 97.616C567.217 98.192 565.553 98.48 563.569 98.48ZM557.329 82.88H568.897C568.801 80.896 568.209 79.424 567.121 78.464C566.033 77.504 564.753 77.024 563.281 77.024C561.649 77.024 560.289 77.552 559.201 78.608C558.113 79.632 557.489 81.056 557.329 82.88ZM580.624 98V72.56H586.96V76.064H587.2C587.648 75.072 588.384 74.16 589.408 73.328C590.432 72.496 591.968 72.08 594.016 72.08C594.656 72.08 595.184 72.128 595.6 72.224C596.016 72.288 596.224 72.32 596.224 72.32V78.512C596.224 78.512 595.984 78.48 595.504 78.416C595.056 78.352 594.496 78.32 593.824 78.32C591.584 78.32 589.888 78.944 588.736 80.192C587.584 81.44 587.008 83.456 587.008 86.24V98H580.624ZM610.865 98.48C608.785 98.48 607.073 98.208 605.729 97.664C604.385 97.088 603.313 96.384 602.513 95.552C601.745 94.688 601.169 93.84 600.785 93.008C600.401 92.176 600.145 91.488 600.017 90.944C599.921 90.368 599.873 90.08 599.873 90.08H605.921C605.921 90.08 605.969 90.256 606.065 90.608C606.193 90.96 606.417 91.376 606.737 91.856C607.089 92.304 607.617 92.704 608.321 93.056C609.025 93.408 609.953 93.584 611.105 93.584C612.481 93.584 613.473 93.296 614.081 92.72C614.689 92.112 614.993 91.44 614.993 90.704C614.993 90 614.721 89.44 614.177 89.024C613.665 88.576 612.897 88.24 611.873 88.016L608.369 87.296C606.961 87.008 605.649 86.592 604.433 86.048C603.217 85.472 602.225 84.704 601.457 83.744C600.689 82.752 600.305 81.488 600.305 79.952C600.305 77.68 601.169 75.808 602.897 74.336C604.625 72.832 606.977 72.08 609.953 72.08C611.841 72.08 613.393 72.336 614.609 72.848C615.857 73.36 616.849 74 617.585 74.768C618.353 75.536 618.913 76.304 619.265 77.072C619.649 77.84 619.889 78.496 619.985 79.04C620.113 79.552 620.177 79.808 620.177 79.808H614.321C614.321 79.808 614.273 79.664 614.177 79.376C614.081 79.056 613.873 78.704 613.553 78.32C613.265 77.936 612.817 77.6 612.209 77.312C611.633 76.992 610.849 76.832 609.857 76.832C608.513 76.832 607.553 77.12 606.977 77.696C606.433 78.272 606.161 78.88 606.161 79.52C606.161 80.224 606.465 80.768 607.073 81.152C607.681 81.536 608.465 81.824 609.425 82.016L612.737 82.736C615.105 83.216 617.041 84.048 618.545 85.232C620.081 86.416 620.849 88.128 620.849 90.368C620.849 91.872 620.449 93.248 619.649 94.496C618.881 95.712 617.745 96.688 616.241 97.424C614.769 98.128 612.977 98.48 610.865 98.48ZM626.866 104.576L630.658 98.384C629.666 98.32 628.85 97.936 628.21 97.232C627.57 96.528 627.25 95.664 627.25 94.64C627.25 93.552 627.618 92.672 628.354 92C629.09 91.296 629.986 90.944 631.042 90.944C632.162 90.944 633.09 91.296 633.826 92C634.594 92.672 634.978 93.616 634.978 94.832C634.978 95.856 634.594 97.04 633.826 98.384C633.058 99.728 631.794 101.632 630.034 104.096L629.65 104.576H626.866ZM669.802 98.48C666.89 98.48 664.33 97.968 662.122 96.944C659.914 95.888 658.058 94.496 656.554 92.768C655.082 91.008 653.962 89.04 653.194 86.864C652.458 84.688 652.09 82.464 652.09 80.192C652.09 77.92 652.458 75.712 653.194 73.568C653.962 71.392 655.082 69.44 656.554 67.712C658.058 65.984 659.914 64.608 662.122 63.584C664.33 62.528 666.89 62 669.802 62C672.714 62 675.274 62.528 677.482 63.584C679.69 64.608 681.53 65.984 683.002 67.712C684.506 69.44 685.626 71.392 686.362 73.568C687.13 75.712 687.514 77.92 687.514 80.192C687.514 82.464 687.13 84.688 686.362 86.864C685.626 89.04 684.506 91.008 683.002 92.768C681.53 94.496 679.69 95.888 677.482 96.944C675.274 97.968 672.714 98.48 669.802 98.48ZM669.802 92.576C672.202 92.576 674.202 91.984 675.802 90.8C677.434 89.616 678.666 88.08 679.498 86.192C680.362 84.304 680.794 82.304 680.794 80.192C680.794 78.112 680.362 76.144 679.498 74.288C678.666 72.4 677.434 70.864 675.802 69.68C674.202 68.496 672.202 67.904 669.802 67.904C667.402 67.904 665.386 68.496 663.754 69.68C662.122 70.864 660.89 72.4 660.058 74.288C659.226 76.144 658.81 78.112 658.81 80.192C658.81 82.304 659.226 84.304 660.058 86.192C660.89 88.08 662.122 89.616 663.754 90.8C665.386 91.984 667.402 92.576 669.802 92.576ZM692.656 98V72.56H699.04V76.208H699.328C699.584 75.76 699.984 75.216 700.528 74.576C701.072 73.904 701.824 73.328 702.784 72.848C703.744 72.336 704.96 72.08 706.432 72.08C708.384 72.08 709.984 72.528 711.232 73.424C712.512 74.288 713.456 75.44 714.064 76.88C714.704 78.32 715.024 79.872 715.024 81.536V98H708.64V82.4C708.64 81.024 708.256 79.84 707.488 78.848C706.72 77.856 705.568 77.36 704.032 77.36C702.848 77.36 701.888 77.664 701.152 78.272C700.416 78.848 699.872 79.6 699.52 80.528C699.2 81.456 699.04 82.432 699.04 83.456V98H692.656ZM733.069 98.48C730.893 98.48 729.005 98.112 727.405 97.376C725.837 96.608 724.525 95.6 723.469 94.352C722.445 93.072 721.677 91.648 721.165 90.08C720.653 88.512 720.397 86.912 720.397 85.28C720.397 83.648 720.637 82.064 721.117 80.528C721.629 78.96 722.381 77.536 723.373 76.256C724.397 74.976 725.693 73.968 727.261 73.232C728.829 72.464 730.685 72.08 732.829 72.08C735.133 72.08 737.165 72.592 738.925 73.616C740.685 74.64 742.061 76.144 743.053 78.128C744.045 80.08 744.541 82.512 744.541 85.424V87.056H726.829C726.925 88.784 727.517 90.288 728.605 91.568C729.693 92.816 731.181 93.44 733.069 93.44C734.157 93.44 735.053 93.264 735.757 92.912C736.461 92.56 737.005 92.16 737.389 91.712C737.773 91.232 738.045 90.832 738.205 90.512C738.365 90.16 738.445 89.984 738.445 89.984H744.349C744.349 89.984 744.269 90.272 744.109 90.848C743.949 91.392 743.645 92.096 743.197 92.96C742.781 93.792 742.157 94.64 741.325 95.504C740.493 96.336 739.405 97.04 738.061 97.616C736.717 98.192 735.053 98.48 733.069 98.48ZM726.829 82.88H738.397C738.301 80.896 737.709 79.424 736.621 78.464C735.533 77.504 734.253 77.024 732.781 77.024C731.149 77.024 729.789 77.552 728.701 78.608C727.613 79.632 726.989 81.056 726.829 82.88ZM777.699 98.48C774.819 98.48 772.291 97.968 770.115 96.944C767.971 95.888 766.163 94.496 764.691 92.768C763.251 91.008 762.163 89.056 761.427 86.912C760.723 84.736 760.371 82.512 760.371 80.24C760.371 77.968 760.723 75.744 761.427 73.568C762.163 71.392 763.251 69.44 764.691 67.712C766.163 65.952 767.971 64.56 770.115 63.536C772.291 62.512 774.819 62 777.699 62C780.099 62 782.163 62.304 783.891 62.912C785.619 63.52 787.059 64.304 788.211 65.264C789.363 66.224 790.275 67.248 790.947 68.336C791.651 69.424 792.179 70.448 792.531 71.408C792.883 72.368 793.107 73.152 793.203 73.76C793.331 74.368 793.395 74.672 793.395 74.672H786.915C786.915 74.672 786.851 74.448 786.723 74C786.627 73.552 786.403 72.992 786.051 72.32C785.731 71.616 785.235 70.928 784.563 70.256C783.891 69.584 782.995 69.024 781.875 68.576C780.787 68.128 779.427 67.904 777.795 67.904C776.003 67.904 774.435 68.256 773.091 68.96C771.747 69.632 770.627 70.56 769.731 71.744C768.835 72.928 768.163 74.256 767.715 75.728C767.299 77.2 767.091 78.704 767.091 80.24C767.091 81.776 767.299 83.28 767.715 84.752C768.163 86.192 768.835 87.504 769.731 88.688C770.627 89.872 771.747 90.816 773.091 91.52C774.435 92.224 776.003 92.576 777.795 92.576C779.427 92.576 780.787 92.352 781.875 91.904C782.995 91.424 783.891 90.848 784.563 90.176C785.235 89.504 785.731 88.832 786.051 88.16C786.403 87.488 786.627 86.928 786.723 86.48C786.851 86 786.915 85.76 786.915 85.76H793.395C793.395 85.76 793.331 86.064 793.203 86.672C793.107 87.28 792.883 88.08 792.531 89.072C792.179 90.032 791.651 91.056 790.947 92.144C790.275 93.2 789.363 94.224 788.211 95.216C787.059 96.176 785.619 96.96 783.891 97.568C782.163 98.176 780.099 98.48 777.699 98.48ZM799.026 98L799.074 61.52H805.41V98H799.026ZM815.699 68.624C814.579 68.624 813.651 68.256 812.915 67.52C812.211 66.784 811.859 65.904 811.859 64.88C811.859 63.856 812.211 62.976 812.915 62.24C813.651 61.504 814.579 61.136 815.699 61.136C816.819 61.136 817.747 61.504 818.483 62.24C819.219 62.976 819.587 63.856 819.587 64.88C819.587 65.904 819.219 66.784 818.483 67.52C817.747 68.256 816.819 68.624 815.699 68.624ZM812.531 98V72.56H818.915V98H812.531ZM838.17 98.48C835.994 98.48 834.09 98.112 832.458 97.376C830.826 96.608 829.466 95.6 828.378 94.352C827.29 93.072 826.474 91.648 825.93 90.08C825.418 88.512 825.162 86.912 825.162 85.28C825.162 83.648 825.418 82.048 825.93 80.48C826.474 78.912 827.274 77.504 828.33 76.256C829.418 74.976 830.778 73.968 832.41 73.232C834.042 72.464 835.962 72.08 838.17 72.08C840.346 72.08 842.154 72.4 843.594 73.04C845.034 73.68 846.17 74.48 847.002 75.44C847.866 76.4 848.506 77.36 848.922 78.32C849.338 79.248 849.61 80.032 849.738 80.672C849.866 81.312 849.93 81.632 849.93 81.632H843.93C843.93 81.632 843.866 81.424 843.738 81.008C843.61 80.56 843.354 80.048 842.97 79.472C842.586 78.896 842.01 78.384 841.242 77.936C840.506 77.488 839.514 77.264 838.266 77.264C836.794 77.264 835.546 77.648 834.522 78.416C833.53 79.152 832.778 80.128 832.266 81.344C831.754 82.56 831.498 83.872 831.498 85.28C831.498 86.688 831.754 88 832.266 89.216C832.778 90.432 833.53 91.424 834.522 92.192C835.546 92.928 836.794 93.296 838.266 93.296C839.514 93.296 840.506 93.072 841.242 92.624C842.01 92.176 842.586 91.664 842.97 91.088C843.354 90.512 843.61 90.016 843.738 89.6C843.866 89.152 843.93 88.928 843.93 88.928H849.93C849.93 88.928 849.866 89.248 849.738 89.888C849.61 90.528 849.338 91.328 848.922 92.288C848.506 93.216 847.866 94.16 847.002 95.12C846.17 96.08 845.034 96.88 843.594 97.52C842.154 98.16 840.346 98.48 838.17 98.48ZM855.979 98V61.52H862.363V82.64L871.339 72.56H878.875L868.315 84.176L879.211 98H871.579L862.363 86.288V98H855.979ZM905.489 72.08C907.121 72.08 908.465 72.352 909.521 72.896C910.577 73.408 911.409 73.984 912.017 74.624C912.625 75.232 913.041 75.728 913.265 76.112H913.553V72.56H919.937V98H913.553V94.448H913.265C913.041 94.832 912.625 95.344 912.017 95.984C911.409 96.624 910.577 97.2 909.521 97.712C908.465 98.224 907.121 98.48 905.489 98.48C903.601 98.48 901.953 98.112 900.545 97.376C899.137 96.608 897.953 95.6 896.993 94.352C896.065 93.072 895.361 91.648 894.881 90.08C894.433 88.512 894.209 86.912 894.209 85.28C894.209 83.648 894.433 82.048 894.881 80.48C895.361 78.912 896.065 77.504 896.993 76.256C897.953 74.976 899.137 73.968 900.545 73.232C901.953 72.464 903.601 72.08 905.489 72.08ZM907.169 77.312C905.729 77.312 904.513 77.712 903.521 78.512C902.561 79.28 901.841 80.272 901.361 81.488C900.881 82.704 900.641 83.968 900.641 85.28C900.641 86.592 900.881 87.856 901.361 89.072C901.841 90.288 902.561 91.296 903.521 92.096C904.513 92.864 905.729 93.248 907.169 93.248C908.609 93.248 909.809 92.864 910.769 92.096C911.729 91.296 912.449 90.288 912.929 89.072C913.409 87.856 913.649 86.592 913.649 85.28C913.649 83.968 913.409 82.704 912.929 81.488C912.449 80.272 911.729 79.28 910.769 78.512C909.809 77.712 908.609 77.312 907.169 77.312ZM936.815 98.48C935.087 98.48 933.663 98.224 932.543 97.712C931.423 97.2 930.543 96.528 929.903 95.696C929.295 94.864 928.863 93.952 928.607 92.96C928.351 91.968 928.223 90.992 928.223 90.032V77.696H923.855V72.56H928.223V66.224H934.607V72.56H940.319V77.696H934.607V89.888C934.607 92.16 935.887 93.296 938.447 93.296C939.055 93.296 939.615 93.264 940.127 93.2C940.671 93.104 940.943 93.056 940.943 93.056V98.048C940.943 98.048 940.527 98.112 939.695 98.24C938.895 98.4 937.935 98.48 936.815 98.48ZM968.114 72.08C969.746 72.08 971.09 72.352 972.146 72.896C973.202 73.408 974.034 73.984 974.642 74.624C975.25 75.232 975.666 75.728 975.89 76.112H976.178V72.56H982.562V98H976.178V94.448H975.89C975.666 94.832 975.25 95.344 974.642 95.984C974.034 96.624 973.202 97.2 972.146 97.712C971.09 98.224 969.746 98.48 968.114 98.48C966.226 98.48 964.578 98.112 963.17 97.376C961.762 96.608 960.578 95.6 959.618 94.352C958.69 93.072 957.986 91.648 957.506 90.08C957.058 88.512 956.834 86.912 956.834 85.28C956.834 83.648 957.058 82.048 957.506 80.48C957.986 78.912 958.69 77.504 959.618 76.256C960.578 74.976 961.762 73.968 963.17 73.232C964.578 72.464 966.226 72.08 968.114 72.08ZM969.794 77.312C968.354 77.312 967.138 77.712 966.146 78.512C965.186 79.28 964.466 80.272 963.986 81.488C963.506 82.704 963.266 83.968 963.266 85.28C963.266 86.592 963.506 87.856 963.986 89.072C964.466 90.288 965.186 91.296 966.146 92.096C967.138 92.864 968.354 93.248 969.794 93.248C971.234 93.248 972.434 92.864 973.394 92.096C974.354 91.296 975.074 90.288 975.554 89.072C976.034 87.856 976.274 86.592 976.274 85.28C976.274 83.968 976.034 82.704 975.554 81.488C975.074 80.272 974.354 79.28 973.394 78.512C972.434 77.712 971.234 77.312 969.794 77.312ZM1009.53 98V68.144H998.585V62.48H1027V68.144H1016.06V98H1009.53ZM1035.78 68.624C1034.66 68.624 1033.73 68.256 1032.99 67.52C1032.29 66.784 1031.94 65.904 1031.94 64.88C1031.94 63.856 1032.29 62.976 1032.99 62.24C1033.73 61.504 1034.66 61.136 1035.78 61.136C1036.9 61.136 1037.82 61.504 1038.56 62.24C1039.3 62.976 1039.66 63.856 1039.66 64.88C1039.66 65.904 1039.3 66.784 1038.56 67.52C1037.82 68.256 1036.9 68.624 1035.78 68.624ZM1032.61 98V72.56H1038.99V98H1032.61ZM1045.62 98V72.56H1052.01V76.112H1052.25C1052.57 75.536 1053.02 74.944 1053.59 74.336C1054.17 73.696 1054.9 73.168 1055.8 72.752C1056.73 72.304 1057.86 72.08 1059.21 72.08C1061.1 72.08 1062.65 72.528 1063.86 73.424C1065.08 74.32 1065.98 75.472 1066.55 76.88H1066.65C1067.29 75.664 1068.23 74.56 1069.48 73.568C1070.76 72.576 1072.46 72.08 1074.57 72.08C1076.36 72.08 1077.85 72.496 1079.03 73.328C1080.25 74.128 1081.14 75.216 1081.72 76.592C1082.33 77.968 1082.63 79.456 1082.63 81.056V98H1076.25V82.4C1076.25 80.928 1075.88 79.728 1075.14 78.8C1074.44 77.84 1073.38 77.36 1071.98 77.36C1070.86 77.36 1069.94 77.664 1069.24 78.272C1068.57 78.848 1068.07 79.584 1067.75 80.48C1067.46 81.376 1067.32 82.288 1067.32 83.216V98H1060.94V82.4C1060.94 80.928 1060.58 79.728 1059.88 78.8C1059.18 77.84 1058.1 77.36 1056.66 77.36C1055.54 77.36 1054.63 77.664 1053.93 78.272C1053.26 78.848 1052.76 79.6 1052.44 80.528C1052.15 81.424 1052.01 82.32 1052.01 83.216V98H1045.62ZM1100.66 98.48C1098.49 98.48 1096.6 98.112 1095 97.376C1093.43 96.608 1092.12 95.6 1091.06 94.352C1090.04 93.072 1089.27 91.648 1088.76 90.08C1088.25 88.512 1087.99 86.912 1087.99 85.28C1087.99 83.648 1088.23 82.064 1088.71 80.528C1089.22 78.96 1089.97 77.536 1090.97 76.256C1091.99 74.976 1093.29 73.968 1094.85 73.232C1096.42 72.464 1098.28 72.08 1100.42 72.08C1102.73 72.08 1104.76 72.592 1106.52 73.616C1108.28 74.64 1109.65 76.144 1110.65 78.128C1111.64 80.08 1112.13 82.512 1112.13 85.424V87.056H1094.42C1094.52 88.784 1095.11 90.288 1096.2 91.568C1097.29 92.816 1098.77 93.44 1100.66 93.44C1101.75 93.44 1102.65 93.264 1103.35 92.912C1104.05 92.56 1104.6 92.16 1104.98 91.712C1105.37 91.232 1105.64 90.832 1105.8 90.512C1105.96 90.16 1106.04 89.984 1106.04 89.984H1111.94C1111.94 89.984 1111.86 90.272 1111.7 90.848C1111.54 91.392 1111.24 92.096 1110.79 92.96C1110.37 93.792 1109.75 94.64 1108.92 95.504C1108.09 96.336 1107 97.04 1105.65 97.616C1104.31 98.192 1102.65 98.48 1100.66 98.48ZM1094.42 82.88H1105.99C1105.89 80.896 1105.3 79.424 1104.21 78.464C1103.13 77.504 1101.85 77.024 1100.37 77.024C1098.74 77.024 1097.38 77.552 1096.29 78.608C1095.21 79.632 1094.58 81.056 1094.42 82.88Z" fill="#1A1A1A"/>
<path fill-rule="evenodd" clip-rule="evenodd" d="M13.0489 40.1269C9.32492 39.0752 5.42609 38.5447 1.64397 38.0587C0.829355 37.9568 0.0730442 38.5254 0.0148577 39.3264C-0.101515 40.1281 0.480691 40.8612 1.23712 40.9631C4.90286 41.4309 8.68465 41.9316 12.234 42.944C12.9904 43.1636 13.8054 42.7116 14.0381 41.9339C14.2709 41.1569 13.8053 40.3471 13.0489 40.1269Z" fill="#262626"/>
<path fill-rule="evenodd" clip-rule="evenodd" d="M24.3365 25.2177C18.3433 19.0629 11.5937 13.7003 5.71685 7.38028C5.19318 6.79003 4.26219 6.75841 3.68033 7.30942C3.09846 7.86103 3.0405 8.78856 3.62237 9.37881C9.4992 15.717 16.2488 21.0971 22.242 27.2701C22.8239 27.8463 23.7547 27.8545 24.3365 27.2877C24.8602 26.7215 24.9184 25.7939 24.3365 25.2177Z" fill="#262626"/>
<path fill-rule="evenodd" clip-rule="evenodd" d="M35.5674 1.54341C35.742 5.06616 35.9162 8.58891 36.0907 12.1123C36.0907 12.9192 36.7893 13.5422 37.6039 13.503C38.4185 13.4631 39.0001 12.7763 39.0001 11.9688C38.8255 8.44018 38.6513 4.91216 38.4767 1.38413C38.4185 0.577224 37.7202 -0.0417174 36.9056 0.00219986C36.1492 0.0461172 35.5092 0.737085 35.5674 1.54341Z" fill="#262626"/>
</svg>
