<svg width="735" height="130" viewBox="0 0 735 130" fill="none" xmlns="http://www.w3.org/2000/svg">
<rect x="24.5" y="30.5" width="710" height="99" rx="10.5" fill="#FCFCFD"/>
<rect x="24.5" y="30.5" width="710" height="99" rx="10.5" stroke="#F1F1F3"/>
<rect x="44" y="49" width="62" height="62" rx="6" fill="#FFF4E6"/>
<path fill-rule="evenodd" clip-rule="evenodd" d="M78.7049 65.2595C79.1317 65.4974 79.3411 65.9957 79.2126 66.4671L76.3911 76.8125H86.6875C87.1106 76.8125 87.4934 77.0635 87.662 77.4516C87.8306 77.8396 87.7529 78.2907 87.4643 78.6L72.5893 94.5375C72.2559 94.8947 71.7219 94.9785 71.2951 94.7406C70.8684 94.5026 70.6589 94.0044 70.7875 93.533L73.6089 83.1875H63.3125C62.8894 83.1875 62.5067 82.9365 62.3381 82.5485C62.1694 82.1605 62.2471 81.7094 62.5358 81.4001L77.4108 65.4626C77.7442 65.1054 78.2782 65.0216 78.7049 65.2595Z" fill="#262626"/>
<path d="M138.401 98V62.48H153.905C156.177 62.48 158.113 62.88 159.713 63.68C161.313 64.48 162.529 65.552 163.361 66.896C164.225 68.24 164.657 69.712 164.657 71.312C164.657 72.944 164.353 74.288 163.745 75.344C163.169 76.4 162.465 77.232 161.633 77.84C160.833 78.416 160.097 78.816 159.425 79.04V79.376C160.257 79.6 161.185 80.032 162.209 80.672C163.265 81.312 164.177 82.224 164.945 83.408C165.713 84.56 166.097 86.064 166.097 87.92C166.097 89.584 165.697 91.2 164.897 92.768C164.097 94.304 162.833 95.568 161.105 96.56C159.377 97.52 157.089 98 154.241 98H138.401ZM153.041 68H144.929V77.264H153.041C154.897 77.264 156.241 76.8 157.073 75.872C157.905 74.944 158.321 73.856 158.321 72.608C158.321 71.392 157.905 70.32 157.073 69.392C156.241 68.464 154.897 68 153.041 68ZM153.521 82.256H144.929V92.48H153.521C155.633 92.48 157.169 91.968 158.129 90.944C159.089 89.92 159.569 88.72 159.569 87.344C159.569 86 159.089 84.816 158.129 83.792C157.169 82.768 155.633 82.256 153.521 82.256ZM171.437 98V72.56H177.773V76.064H178.013C178.461 75.072 179.197 74.16 180.221 73.328C181.245 72.496 182.781 72.08 184.829 72.08C185.469 72.08 185.997 72.128 186.413 72.224C186.829 72.288 187.037 72.32 187.037 72.32V78.512C187.037 78.512 186.797 78.48 186.317 78.416C185.869 78.352 185.309 78.32 184.637 78.32C182.397 78.32 180.701 78.944 179.549 80.192C178.397 81.44 177.821 83.456 177.821 86.24V98H171.437ZM195.996 68.624C194.876 68.624 193.948 68.256 193.212 67.52C192.508 66.784 192.156 65.904 192.156 64.88C192.156 63.856 192.508 62.976 193.212 62.24C193.948 61.504 194.876 61.136 195.996 61.136C197.116 61.136 198.044 61.504 198.78 62.24C199.516 62.976 199.884 63.856 199.884 64.88C199.884 65.904 199.516 66.784 198.78 67.52C198.044 68.256 197.116 68.624 195.996 68.624ZM192.828 98V72.56H199.212V98H192.828ZM205.843 98V72.56H212.227V76.208H212.515C212.771 75.76 213.171 75.216 213.715 74.576C214.259 73.904 215.011 73.328 215.971 72.848C216.931 72.336 218.147 72.08 219.619 72.08C221.571 72.08 223.171 72.528 224.419 73.424C225.699 74.288 226.643 75.44 227.251 76.88C227.891 78.32 228.211 79.872 228.211 81.536V98H221.827V82.4C221.827 81.024 221.443 79.84 220.675 78.848C219.907 77.856 218.755 77.36 217.219 77.36C216.035 77.36 215.075 77.664 214.339 78.272C213.603 78.848 213.059 79.6 212.707 80.528C212.387 81.456 212.227 82.432 212.227 83.456V98H205.843ZM246.736 108.176C244.464 108.176 242.576 107.872 241.072 107.264C239.6 106.688 238.432 105.968 237.568 105.104C236.704 104.272 236.064 103.424 235.648 102.56C235.232 101.696 234.96 100.976 234.832 100.4C234.704 99.824 234.64 99.536 234.64 99.536H240.88C240.88 99.536 240.944 99.712 241.072 100.064C241.2 100.416 241.456 100.816 241.84 101.264C242.256 101.744 242.848 102.16 243.616 102.512C244.384 102.864 245.408 103.04 246.688 103.04C248.928 103.04 250.544 102.4 251.536 101.12C252.528 99.84 253.024 98.288 253.024 96.464V93.632H252.736C252.384 94.176 251.872 94.768 251.2 95.408C250.56 96.048 249.712 96.592 248.656 97.04C247.632 97.488 246.384 97.712 244.912 97.712C243.024 97.712 241.376 97.344 239.968 96.608C238.56 95.872 237.376 94.896 236.416 93.68C235.456 92.464 234.736 91.104 234.256 89.6C233.808 88.064 233.584 86.496 233.584 84.896C233.584 83.296 233.808 81.744 234.256 80.24C234.736 78.704 235.456 77.328 236.416 76.112C237.376 74.864 238.56 73.888 239.968 73.184C241.376 72.448 243.024 72.08 244.912 72.08C246.384 72.08 247.632 72.304 248.656 72.752C249.712 73.2 250.56 73.744 251.2 74.384C251.872 74.992 252.384 75.568 252.736 76.112H253.024V72.56H259.408V96.416C259.408 98.624 258.944 100.608 258.016 102.368C257.088 104.16 255.68 105.568 253.792 106.592C251.936 107.648 249.584 108.176 246.736 108.176ZM246.592 92.576C248.032 92.576 249.232 92.208 250.192 91.472C251.152 90.704 251.872 89.744 252.352 88.592C252.832 87.408 253.072 86.176 253.072 84.896C253.072 83.584 252.832 82.352 252.352 81.2C251.872 80.016 251.152 79.056 250.192 78.32C249.232 77.584 248.032 77.216 246.592 77.216C245.12 77.216 243.888 77.584 242.896 78.32C241.936 79.056 241.216 80.016 240.736 81.2C240.256 82.352 240.016 83.584 240.016 84.896C240.016 86.176 240.256 87.408 240.736 88.592C241.216 89.744 241.936 90.704 242.896 91.472C243.888 92.208 245.12 92.576 246.592 92.576ZM269.214 68.624C268.094 68.624 267.166 68.256 266.43 67.52C265.726 66.784 265.374 65.904 265.374 64.88C265.374 63.856 265.726 62.976 266.43 62.24C267.166 61.504 268.094 61.136 269.214 61.136C270.334 61.136 271.262 61.504 271.998 62.24C272.734 62.976 273.102 63.856 273.102 64.88C273.102 65.904 272.734 66.784 271.998 67.52C271.262 68.256 270.334 68.624 269.214 68.624ZM266.046 98V72.56H272.43V98H266.046ZM279.062 98V72.56H285.446V76.208H285.734C285.99 75.76 286.39 75.216 286.934 74.576C287.478 73.904 288.23 73.328 289.19 72.848C290.15 72.336 291.366 72.08 292.838 72.08C294.79 72.08 296.39 72.528 297.638 73.424C298.918 74.288 299.862 75.44 300.47 76.88C301.11 78.32 301.43 79.872 301.43 81.536V98H295.046V82.4C295.046 81.024 294.662 79.84 293.894 78.848C293.126 77.856 291.974 77.36 290.438 77.36C289.254 77.36 288.294 77.664 287.558 78.272C286.822 78.848 286.278 79.6 285.926 80.528C285.606 81.456 285.446 82.432 285.446 83.456V98H279.062ZM319.955 108.176C317.683 108.176 315.795 107.872 314.291 107.264C312.819 106.688 311.651 105.968 310.787 105.104C309.923 104.272 309.283 103.424 308.867 102.56C308.451 101.696 308.179 100.976 308.051 100.4C307.923 99.824 307.859 99.536 307.859 99.536H314.099C314.099 99.536 314.163 99.712 314.291 100.064C314.419 100.416 314.675 100.816 315.059 101.264C315.475 101.744 316.067 102.16 316.835 102.512C317.603 102.864 318.627 103.04 319.907 103.04C322.147 103.04 323.763 102.4 324.755 101.12C325.747 99.84 326.243 98.288 326.243 96.464V93.632H325.955C325.603 94.176 325.091 94.768 324.419 95.408C323.779 96.048 322.931 96.592 321.875 97.04C320.851 97.488 319.603 97.712 318.131 97.712C316.243 97.712 314.595 97.344 313.187 96.608C311.779 95.872 310.595 94.896 309.635 93.68C308.675 92.464 307.955 91.104 307.475 89.6C307.027 88.064 306.803 86.496 306.803 84.896C306.803 83.296 307.027 81.744 307.475 80.24C307.955 78.704 308.675 77.328 309.635 76.112C310.595 74.864 311.779 73.888 313.187 73.184C314.595 72.448 316.243 72.08 318.131 72.08C319.603 72.08 320.851 72.304 321.875 72.752C322.931 73.2 323.779 73.744 324.419 74.384C325.091 74.992 325.603 75.568 325.955 76.112H326.243V72.56H332.627V96.416C332.627 98.624 332.163 100.608 331.235 102.368C330.307 104.16 328.899 105.568 327.011 106.592C325.155 107.648 322.803 108.176 319.955 108.176ZM319.811 92.576C321.251 92.576 322.451 92.208 323.411 91.472C324.371 90.704 325.091 89.744 325.571 88.592C326.051 87.408 326.291 86.176 326.291 84.896C326.291 83.584 326.051 82.352 325.571 81.2C325.091 80.016 324.371 79.056 323.411 78.32C322.451 77.584 321.251 77.216 319.811 77.216C318.339 77.216 317.107 77.584 316.115 78.32C315.155 79.056 314.435 80.016 313.955 81.2C313.475 82.352 313.235 83.584 313.235 84.896C313.235 86.176 313.475 87.408 313.955 88.592C314.435 89.744 315.155 90.704 316.115 91.472C317.107 92.208 318.339 92.576 319.811 92.576ZM359.592 98V68.144H348.648V62.48H377.064V68.144H366.12V98H359.592ZM386.22 98.48C383.564 98.48 381.548 97.664 380.172 96.032C378.828 94.4 378.156 92.304 378.156 89.744V72.56H384.492V88.688C384.492 90.064 384.86 91.168 385.596 92C386.332 92.8 387.372 93.2 388.716 93.2C389.9 93.2 390.86 92.896 391.596 92.288C392.332 91.68 392.86 90.896 393.18 89.936C393.532 88.976 393.708 87.984 393.708 86.96V72.56H400.092V98H393.708V94.352H393.42C393.1 94.928 392.636 95.536 392.028 96.176C391.452 96.816 390.684 97.36 389.724 97.808C388.796 98.256 387.628 98.48 386.22 98.48ZM417.518 98.48C415.79 98.48 414.366 98.224 413.246 97.712C412.126 97.2 411.246 96.528 410.606 95.696C409.998 94.864 409.566 93.952 409.31 92.96C409.054 91.968 408.926 90.992 408.926 90.032V77.696H404.558V72.56H408.926V66.224H415.31V72.56H421.022V77.696H415.31V89.888C415.31 92.16 416.59 93.296 419.15 93.296C419.758 93.296 420.318 93.264 420.83 93.2C421.374 93.104 421.646 93.056 421.646 93.056V98.048C421.646 98.048 421.23 98.112 420.398 98.24C419.598 98.4 418.638 98.48 417.518 98.48ZM438.968 98.48C436.184 98.48 433.816 97.856 431.864 96.608C429.912 95.36 428.424 93.744 427.4 91.76C426.408 89.744 425.912 87.584 425.912 85.28C425.912 82.976 426.408 80.832 427.4 78.848C428.424 76.832 429.912 75.2 431.864 73.952C433.816 72.704 436.184 72.08 438.968 72.08C441.784 72.08 444.152 72.704 446.072 73.952C448.024 75.2 449.496 76.832 450.488 78.848C451.512 80.832 452.024 82.976 452.024 85.28C452.024 87.584 451.512 89.744 450.488 91.76C449.496 93.744 448.024 95.36 446.072 96.608C444.152 97.856 441.784 98.48 438.968 98.48ZM438.968 93.152C440.408 93.152 441.608 92.784 442.568 92.048C443.56 91.312 444.312 90.352 444.824 89.168C445.336 87.952 445.592 86.656 445.592 85.28C445.592 83.872 445.336 82.576 444.824 81.392C444.312 80.208 443.56 79.248 442.568 78.512C441.608 77.776 440.408 77.408 438.968 77.408C437.56 77.408 436.36 77.776 435.368 78.512C434.376 79.248 433.624 80.208 433.112 81.392C432.6 82.576 432.344 83.872 432.344 85.28C432.344 86.656 432.6 87.952 433.112 89.168C433.624 90.352 434.376 91.312 435.368 92.048C436.36 92.784 437.56 93.152 438.968 93.152ZM457.609 98V72.56H463.945V76.064H464.185C464.633 75.072 465.369 74.16 466.393 73.328C467.417 72.496 468.953 72.08 471.001 72.08C471.641 72.08 472.169 72.128 472.585 72.224C473.001 72.288 473.209 72.32 473.209 72.32V78.512C473.209 78.512 472.969 78.48 472.489 78.416C472.041 78.352 471.481 78.32 470.809 78.32C468.569 78.32 466.873 78.944 465.721 80.192C464.569 81.44 463.993 83.456 463.993 86.24V98H457.609ZM487.85 98.48C485.77 98.48 484.058 98.208 482.714 97.664C481.37 97.088 480.298 96.384 479.498 95.552C478.73 94.688 478.154 93.84 477.77 93.008C477.386 92.176 477.13 91.488 477.002 90.944C476.906 90.368 476.858 90.08 476.858 90.08H482.906C482.906 90.08 482.954 90.256 483.05 90.608C483.178 90.96 483.402 91.376 483.722 91.856C484.074 92.304 484.602 92.704 485.306 93.056C486.01 93.408 486.938 93.584 488.09 93.584C489.466 93.584 490.458 93.296 491.066 92.72C491.674 92.112 491.978 91.44 491.978 90.704C491.978 90 491.706 89.44 491.162 89.024C490.65 88.576 489.882 88.24 488.858 88.016L485.354 87.296C483.946 87.008 482.634 86.592 481.418 86.048C480.202 85.472 479.21 84.704 478.442 83.744C477.674 82.752 477.29 81.488 477.29 79.952C477.29 77.68 478.154 75.808 479.882 74.336C481.61 72.832 483.962 72.08 486.938 72.08C488.826 72.08 490.378 72.336 491.594 72.848C492.842 73.36 493.834 74 494.57 74.768C495.338 75.536 495.898 76.304 496.25 77.072C496.634 77.84 496.874 78.496 496.97 79.04C497.098 79.552 497.162 79.808 497.162 79.808H491.306C491.306 79.808 491.258 79.664 491.162 79.376C491.066 79.056 490.858 78.704 490.538 78.32C490.25 77.936 489.802 77.6 489.194 77.312C488.618 76.992 487.834 76.832 486.842 76.832C485.498 76.832 484.538 77.12 483.962 77.696C483.418 78.272 483.146 78.88 483.146 79.52C483.146 80.224 483.45 80.768 484.058 81.152C484.666 81.536 485.45 81.824 486.41 82.016L489.722 82.736C492.09 83.216 494.026 84.048 495.53 85.232C497.066 86.416 497.834 88.128 497.834 90.368C497.834 91.872 497.434 93.248 496.634 94.496C495.866 95.712 494.73 96.688 493.226 97.424C491.754 98.128 489.962 98.48 487.85 98.48Z" fill="#5751E1"/>
<path d="M525.425 98.48C523.697 98.48 522.273 98.224 521.153 97.712C520.033 97.2 519.153 96.528 518.513 95.696C517.905 94.864 517.473 93.952 517.217 92.96C516.961 91.968 516.833 90.992 516.833 90.032V77.696H512.465V72.56H516.833V66.224H523.217V72.56H528.929V77.696H523.217V89.888C523.217 92.16 524.497 93.296 527.057 93.296C527.665 93.296 528.225 93.264 528.737 93.2C529.281 93.104 529.553 93.056 529.553 93.056V98.048C529.553 98.048 529.137 98.112 528.305 98.24C527.505 98.4 526.545 98.48 525.425 98.48ZM546.875 98.48C544.091 98.48 541.723 97.856 539.771 96.608C537.819 95.36 536.331 93.744 535.307 91.76C534.315 89.744 533.819 87.584 533.819 85.28C533.819 82.976 534.315 80.832 535.307 78.848C536.331 76.832 537.819 75.2 539.771 73.952C541.723 72.704 544.091 72.08 546.875 72.08C549.691 72.08 552.059 72.704 553.979 73.952C555.931 75.2 557.403 76.832 558.395 78.848C559.419 80.832 559.931 82.976 559.931 85.28C559.931 87.584 559.419 89.744 558.395 91.76C557.403 93.744 555.931 95.36 553.979 96.608C552.059 97.856 549.691 98.48 546.875 98.48ZM546.875 93.152C548.315 93.152 549.515 92.784 550.475 92.048C551.467 91.312 552.219 90.352 552.731 89.168C553.243 87.952 553.499 86.656 553.499 85.28C553.499 83.872 553.243 82.576 552.731 81.392C552.219 80.208 551.467 79.248 550.475 78.512C549.515 77.776 548.315 77.408 546.875 77.408C545.467 77.408 544.267 77.776 543.275 78.512C542.283 79.248 541.531 80.208 541.019 81.392C540.507 82.576 540.251 83.872 540.251 85.28C540.251 86.656 540.507 87.952 541.019 89.168C541.531 90.352 542.283 91.312 543.275 92.048C544.267 92.784 545.467 93.152 546.875 93.152ZM578.306 107.36C577.474 107.36 576.786 107.328 576.242 107.264C575.73 107.2 575.474 107.168 575.474 107.168V101.936C575.474 101.936 575.714 101.952 576.194 101.984C576.674 102.048 577.234 102.08 577.874 102.08C579.506 102.08 580.85 101.808 581.906 101.264C582.994 100.752 583.906 99.776 584.642 98.336L575.09 72.56H581.57L587.954 90.704L594.242 72.56H600.722L591.41 97.376C590.13 100.768 588.482 103.28 586.466 104.912C584.45 106.544 581.73 107.36 578.306 107.36ZM616.062 98.48C613.278 98.48 610.91 97.856 608.958 96.608C607.006 95.36 605.518 93.744 604.494 91.76C603.502 89.744 603.006 87.584 603.006 85.28C603.006 82.976 603.502 80.832 604.494 78.848C605.518 76.832 607.006 75.2 608.958 73.952C610.91 72.704 613.278 72.08 616.062 72.08C618.878 72.08 621.246 72.704 623.166 73.952C625.118 75.2 626.59 76.832 627.582 78.848C628.606 80.832 629.118 82.976 629.118 85.28C629.118 87.584 628.606 89.744 627.582 91.76C626.59 93.744 625.118 95.36 623.166 96.608C621.246 97.856 618.878 98.48 616.062 98.48ZM616.062 93.152C617.502 93.152 618.702 92.784 619.662 92.048C620.654 91.312 621.406 90.352 621.918 89.168C622.43 87.952 622.686 86.656 622.686 85.28C622.686 83.872 622.43 82.576 621.918 81.392C621.406 80.208 620.654 79.248 619.662 78.512C618.702 77.776 617.502 77.408 616.062 77.408C614.654 77.408 613.454 77.776 612.462 78.512C611.47 79.248 610.718 80.208 610.206 81.392C609.694 82.576 609.438 83.872 609.438 85.28C609.438 86.656 609.694 87.952 610.206 89.168C610.718 90.352 611.47 91.312 612.462 92.048C613.454 92.784 614.654 93.152 616.062 93.152ZM642.767 98.48C640.111 98.48 638.095 97.664 636.719 96.032C635.375 94.4 634.703 92.304 634.703 89.744V72.56H641.039V88.688C641.039 90.064 641.407 91.168 642.143 92C642.879 92.8 643.919 93.2 645.263 93.2C646.447 93.2 647.407 92.896 648.143 92.288C648.879 91.68 649.407 90.896 649.727 89.936C650.079 88.976 650.255 87.984 650.255 86.96V72.56H656.639V98H650.255V94.352H649.967C649.647 94.928 649.183 95.536 648.575 96.176C647.999 96.816 647.231 97.36 646.271 97.808C645.343 98.256 644.175 98.48 642.767 98.48ZM675.576 87.92L674.952 62.48H681.768L681 87.92H675.576ZM678.36 98.432C677.304 98.432 676.44 98.08 675.768 97.376C675.096 96.672 674.76 95.84 674.76 94.88C674.76 93.888 675.096 93.04 675.768 92.336C676.44 91.632 677.304 91.28 678.36 91.28C679.384 91.28 680.232 91.632 680.904 92.336C681.608 93.04 681.96 93.888 681.96 94.88C681.96 95.872 681.608 96.72 680.904 97.424C680.232 98.096 679.384 98.432 678.36 98.432Z" fill="#1A1A1A"/>
<path fill-rule="evenodd" clip-rule="evenodd" d="M13.0489 40.1269C9.32492 39.0752 5.42609 38.5447 1.64397 38.0587C0.829355 37.9568 0.0730442 38.5254 0.0148577 39.3264C-0.101515 40.1281 0.480691 40.8612 1.23712 40.9631C4.90286 41.4309 8.68465 41.9316 12.234 42.944C12.9904 43.1636 13.8054 42.7116 14.0381 41.9339C14.2709 41.1569 13.8053 40.3471 13.0489 40.1269Z" fill="#262626"/>
<path fill-rule="evenodd" clip-rule="evenodd" d="M24.3365 25.2177C18.3433 19.0629 11.5937 13.7003 5.71685 7.38028C5.19318 6.79003 4.26219 6.75841 3.68033 7.30942C3.09846 7.86103 3.0405 8.78856 3.62237 9.37881C9.4992 15.717 16.2488 21.0971 22.242 27.2701C22.8239 27.8463 23.7547 27.8545 24.3365 27.2877C24.8602 26.7215 24.9184 25.7939 24.3365 25.2177Z" fill="#262626"/>
<path fill-rule="evenodd" clip-rule="evenodd" d="M35.5674 1.54341C35.742 5.06616 35.9162 8.58891 36.0907 12.1123C36.0907 12.9192 36.7893 13.5422 37.6039 13.503C38.4185 13.4631 39.0001 12.7763 39.0001 11.9688C38.8255 8.44018 38.6513 4.91216 38.4767 1.38413C38.4185 0.577224 37.7202 -0.0417174 36.9056 0.00219986C36.1492 0.0461172 35.5092 0.737085 35.5674 1.54341Z" fill="#262626"/>
</svg>
