<svg width="18" height="18" viewBox="0 0 18 18" fill="none" xmlns="http://www.w3.org/2000/svg">
<path d="M7.14374 3.62758C7.93034 1.66658 8.32364 0.686081 8.99997 0.686081C9.6763 0.686081 10.0696 1.66658 10.8562 3.62758L10.8928 3.7189C11.3372 4.82676 11.5594 5.3807 12.0123 5.71739C12.4651 6.05407 13.0596 6.10731 14.2485 6.21379L14.4634 6.23304C16.4092 6.4073 17.3822 6.49443 17.5903 7.11342C17.7985 7.7324 17.076 8.38974 15.6309 9.70443L15.1487 10.1432C14.4172 10.8087 14.0514 11.1415 13.8809 11.5776C13.8491 11.659 13.8227 11.7423 13.8018 11.8271C13.6897 12.2818 13.7968 12.7645 14.0111 13.73L14.0777 14.0305C14.4714 15.8048 14.6682 16.692 14.3246 17.0747C14.1961 17.2177 14.0292 17.3206 13.8438 17.3712C13.3476 17.5066 12.6431 16.9326 11.2342 15.7845C10.309 15.0306 9.84642 14.6537 9.31532 14.5689C9.10641 14.5355 8.89353 14.5355 8.68463 14.5689C8.15352 14.6537 7.69094 15.0306 6.76577 15.7845C5.35681 16.9326 4.65234 17.5066 4.15614 17.3712C3.97072 17.3206 3.80381 17.2177 3.67538 17.0747C3.33171 16.692 3.52854 15.8048 3.92222 14.0305L3.98889 13.73C4.2031 12.7645 4.31021 12.2818 4.19815 11.8271C4.17725 11.7423 4.15081 11.659 4.11901 11.5776C3.94854 11.1415 3.58279 10.8087 2.85128 10.1432L2.369 9.70443C0.923954 8.38974 0.201432 7.7324 0.40961 7.11342C0.617789 6.49443 1.5907 6.4073 3.53651 6.23304L3.75145 6.21379C4.94036 6.10731 5.53482 6.05407 5.98767 5.71739C6.44052 5.3807 6.66272 4.82676 7.10711 3.71889L7.14374 3.62758Z" fill="#F8BC24"/>
</svg>
